# xmcd
#
# Track frame offsets:
#	150
#	11586
#	22145
#	31505
#	45134
#	57345
#	68469
#	80909
#	90778
#	100363
#	107514
#	117566
#	127778
#
# Disc length: 1831 seconds
#
# Revision: 0
# Processed by: cddbd v1.5.2PL0 Copyright (c) Steve Scherf et al.
# Submitted via: EasyCDDAExtractor 15.3.0.1
#
DISCID=9207250d
DTITLE=George Jones - Early Years CD 2
DYEAR=2008
DGENRE=Country
TTITLE0=You Gotta Be My Baby
TTITLE1=It's OK
TTITLE2=Boat Of Life
TTITLE3=Taggin' Along
TTITLE4=Just One More
TTITLE5=Gonna Come Get You
TTITLE6=Yearning
TTITLE7=Run Boy
TTITLE8=Sweet Dreams
TTITLE9=Any Old Time
TTITLE10=Don't Stop The Music
TTITLE11=Uh Uh No
TTITLE12=Too Much Water
EXTD=
EXTT0=
EXTT1=
EXTT2=
EXTT3=
EXTT4=
EXTT5=
EXTT6=
EXTT7=
EXTT8=
EXTT9=
EXTT10=
EXTT11=
EXTT12=
PLAYORDER=
